# xmcd CD database file
#
# Track frame offsets:
#	150
#	5699
#	35699
#	74362
#	110729
#	137159
#	184535
#	236820
#	269370
#
# Disc length: 4281 seconds
#
# Revision: 1
# Processed by: cddbd v1.5PL3 Copyright (c) Steve Scherf et al.
# Submitted via: CDex 1.51
#
DISCID=8410b709
DTITLE=POPA CHUBBY - Live At Dudelang (May 7, 2000) cd 1
DYEAR=2000
DGENRE=Blues
TTITLE0=Intro.
TTITLE1=Carrying On The Torch of The Blues
TTITLE2=No Comfort
TTITLE3=It's A Sad Day In New York City When There Ain't No Room For The Blues
TTITLE4=Time Is Killing Me
TTITLE5=Since I Lost My Leg
TTITLE6=Goin' Down To Willie's
TTITLE7=Daddy Played The Guitar And Mama Was A Disco Queen
TTITLE8=Nobody Know You When You're Down And Out
EXTD=YEAR: 2000
EXTT0=
EXTT1=
EXTT2=
EXTT3=
EXTT4=
EXTT5=
EXTT6=
EXTT7=
EXTT8=
PLAYORDER=
